<?xml version="1.0" encoding="UTF-8"?>
<svg width="16" height="16" viewBox="0 0 16 16" fill="none" xmlns="http://www.w3.org/2000/svg">
<path opacity="0.8" fill-rule="evenodd" clip-rule="evenodd" d="M1 4.2V9C1 10.4001 1 11.1002 1.27248 11.635C1.51217 12.1054 1.89462 12.4878 2.36502 12.7275C2.83407 12.9665 3.43028 12.9959 4.51447 12.9995C4.583 12.156 4.89178 11.3804 5.37229 10.7413C5.77289 10.2085 5.9732 9.94203 6.01866 9.84161C6.06023 9.74976 6.07365 9.72961 6.07999 9.70743C6.08634 9.68526 6.08561 9.66106 6.09891 9.56113C6.11346 9.45185 6.08012 9.07094 6.01346 8.3091C6.00455 8.20725 6 8.10416 6 8C6 6.067 7.567 4.5 9.5 4.5C11.433 4.5 13 6.067 13 8C13 8.10416 12.9955 8.20725 12.9865 8.3091L12.9865 8.30914C12.9199 9.07095 12.8865 9.45186 12.9011 9.56113C12.9144 9.66107 12.9137 9.68526 12.92 9.70744C12.9264 9.72961 12.9398 9.74976 12.9813 9.84161C13.0268 9.94203 13.2271 10.2085 13.6277 10.7413C13.7245 10.87 13.8143 11.0042 13.8965 11.1434C14 10.6607 14 10.0139 14 9V7C14 5.59987 14 4.8998 13.7275 4.36502C13.4878 3.89462 13.1054 3.51217 12.635 3.27248C12.1002 3 11.4001 3 10 3H8.33137C8.20908 3 8.14793 3 8.09038 2.98618C8.03937 2.97394 7.99059 2.95373 7.94586 2.92632C7.8954 2.8954 7.85216 2.85216 7.76569 2.76569L7.76569 2.76569L7.76569 2.76569L7.17157 2.17157C6.73919 1.73919 6.523 1.523 6.27071 1.3684C6.04703 1.23133 5.80317 1.13032 5.54808 1.06908C5.26036 1 4.95462 1 4.34315 1H4.2C3.0799 1 2.51984 1 2.09202 1.21799C1.71569 1.40973 1.40973 1.71569 1.21799 2.09202C1 2.51984 1 3.0799 1 4.2Z" fill="#4B8CA6" stroke="#5BAFD4" stroke-width="0.5"/>
<path fill-rule="evenodd" clip-rule="evenodd" d="M13.3776 7.714L13.0762 11.934C13.0486 12.3192 13.0349 12.5118 12.9613 12.6745C12.8963 12.8183 12.7983 12.9446 12.6751 13.0432C12.5357 13.1548 12.3525 13.2158 11.9862 13.3379L10.506 13.8313C10.3182 13.8939 10.2244 13.9252 10.1284 13.9376C10.0431 13.9487 9.95687 13.9487 9.87167 13.9376C9.77564 13.9252 9.68178 13.8939 9.49405 13.8313L8.01384 13.3379C7.64748 13.2158 7.46429 13.1548 7.32493 13.0432C7.20177 12.9446 7.10369 12.8183 7.03869 12.6745C6.96514 12.5118 6.95139 12.3192 6.92387 11.934L6.62244 7.71399C6.57989 7.11831 6.55862 6.82047 6.66144 6.59103C6.7518 6.38942 6.90638 6.2234 7.10104 6.11891C7.32257 6 7.62117 6 8.21837 6H11.7816C12.3789 6 12.6775 6 12.899 6.11891C13.0936 6.2234 13.2482 6.38942 13.3386 6.59103C13.4414 6.82047 13.4201 7.11831 13.3776 7.714ZM10 13L11.6555 12.5861C11.8618 12.5346 12.0129 12.3581 12.0322 12.1463L12.4504 7.54527C12.4771 7.25246 12.2465 7 11.9525 7H10V13Z" fill="#4B8CA6" stroke="#5BAFD4" stroke-width="0.5"/>
<path fill-rule="evenodd" clip-rule="evenodd" d="M13.3776 7.714L13.0762 11.934C13.0486 12.3192 13.0349 12.5118 12.9613 12.6745C12.8963 12.8183 12.7983 12.9446 12.6751 13.0432C12.5357 13.1548 12.3525 13.2158 11.9862 13.3379L10.506 13.8313C10.3182 13.8939 10.2244 13.9252 10.1284 13.9376C10.0431 13.9487 9.95687 13.9487 9.87167 13.9376C9.77564 13.9252 9.68178 13.8939 9.49405 13.8313L8.01384 13.3379C7.64748 13.2158 7.46429 13.1548 7.32493 13.0432C7.20177 12.9446 7.10369 12.8183 7.03869 12.6745C6.96514 12.5118 6.95139 12.3192 6.92387 11.934L6.62244 7.71399C6.57989 7.11831 6.55862 6.82047 6.66144 6.59103C6.7518 6.38942 6.90638 6.2234 7.10104 6.11891C7.32257 6 7.62117 6 8.21837 6H11.7816C12.3789 6 12.6775 6 12.899 6.11891C13.0936 6.2234 13.2482 6.38942 13.3386 6.59103C13.4414 6.82047 13.4201 7.11831 13.3776 7.714ZM10 13L11.6555 12.5861C11.8618 12.5346 12.0129 12.3581 12.0322 12.1463L12.4504 7.54527C12.4771 7.25246 12.2465 7 11.9525 7H10V13Z" fill="white" fill-opacity="0.2" style="mix-blend-mode:plus-lighter"/></svg>
