<?xml version="1.0" encoding="UTF-8"?>
<svg width="16" height="16" viewBox="0 0 16 16" fill="none" xmlns="http://www.w3.org/2000/svg">
<path opacity="0.8" fill-rule="evenodd" clip-rule="evenodd" d="M1 9V4.2C1 3.0799 1 2.51984 1.21799 2.09202C1.40973 1.71569 1.71569 1.40973 2.09202 1.21799C2.51984 1 3.0799 1 4.2 1H4.34315C4.95462 1 5.26036 1 5.54808 1.06908C5.80317 1.13032 6.04703 1.23133 6.27071 1.3684C6.523 1.523 6.73919 1.73919 7.17157 2.17157L7.76569 2.76569C7.85216 2.85216 7.8954 2.8954 7.94586 2.92632C7.99059 2.95373 8.03937 2.97394 8.09038 2.98618C8.14793 3 8.20908 3 8.33137 3H10C11.4001 3 12.1002 3 12.635 3.27248C13.1054 3.51217 13.4878 3.89462 13.7275 4.36502C14 4.8998 14 5.59987 14 7V9C14 10.4001 14 11.1002 13.7275 11.635C13.4878 12.1054 13.1054 12.4878 12.635 12.7275C12.1002 13 11.4001 13 10 13H5C3.59987 13 2.8998 13 2.36502 12.7275C1.89462 12.4878 1.51217 12.1054 1.27248 11.635C1 11.1002 1 10.4001 1 9Z" fill="#5BAFD4"/>
<path fill-rule="evenodd" clip-rule="evenodd" d="M7 6C7 6.55228 8.34315 7 10 7C11.6569 7 13 6.55228 13 6C13 5.44772 11.6569 5 10 5C8.34315 5 7 5.44772 7 6Z" fill="#5BAFD4"/>
<path fill-rule="evenodd" clip-rule="evenodd" d="M7 8.5C7 9.05228 8.34315 9.5 10 9.5C11.6569 9.5 13 9.05228 13 8.5V6.5C13 7.05228 11.6569 7.5 10 7.5C8.34315 7.5 7 7.05228 7 6.5V8.5Z" fill="#5BAFD4"/>
<path fill-rule="evenodd" clip-rule="evenodd" d="M7 11C7 11.5523 8.34315 12 10 12C11.6569 12 13 11.5523 13 11V9C13 9.55228 11.6569 10 10 10C8.34315 10 7 9.55228 7 9V11Z" fill="#5BAFD4"/>
<path fill-rule="evenodd" clip-rule="evenodd" d="M7 6C7 6.55228 8.34315 7 10 7C11.6569 7 13 6.55228 13 6C13 5.44772 11.6569 5 10 5C8.34315 5 7 5.44772 7 6Z" fill="white" fill-opacity="0.2" style="mix-blend-mode:plus-lighter"/>
<path fill-rule="evenodd" clip-rule="evenodd" d="M7 8.5C7 9.05228 8.34315 9.5 10 9.5C11.6569 9.5 13 9.05228 13 8.5V6.5C13 7.05228 11.6569 7.5 10 7.5C8.34315 7.5 7 7.05228 7 6.5V8.5Z" fill="white" fill-opacity="0.2" style="mix-blend-mode:plus-lighter"/>
<path fill-rule="evenodd" clip-rule="evenodd" d="M7 11C7 11.5523 8.34315 12 10 12C11.6569 12 13 11.5523 13 11V9C13 9.55228 11.6569 10 10 10C8.34315 10 7 9.55228 7 9V11Z" fill="white" fill-opacity="0.2" style="mix-blend-mode:plus-lighter"/>
</svg>
