<?xml version="1.0" encoding="UTF-8"?>
<svg width="16" height="16" viewBox="0 0 16 16" fill="none" xmlns="http://www.w3.org/2000/svg">
<path opacity="0.8" fill-rule="evenodd" clip-rule="evenodd" d="M1 4.2V9C1 10.4001 1 11.1002 1.27248 11.635C1.51217 12.1054 1.89462 12.4878 2.36502 12.7275C2.8998 13 3.59987 13 5 13H7.16476C7.07288 12.9315 6.96579 12.8813 6.84823 12.8552L5.86035 12.6356C5.74583 12.6102 5.68857 12.5975 5.64549 12.5858C4.39262 12.2482 3.78803 10.8253 4.41461 9.689C4.43615 9.64993 4.46674 9.59988 4.52792 9.49978L6.6679 5.99798C6.79467 5.79054 6.85805 5.68683 6.90986 5.61662C7.70427 4.54012 9.31117 4.53205 10.1164 5.60051C10.1689 5.67019 10.2333 5.77326 10.3621 5.97941L10.3621 5.97942L10.425 6.07996C10.7827 6.65231 11.41 7 12.085 7C12.7806 7 13.4339 7.18143 14 7.49955V7C14 5.59987 14 4.8998 13.7275 4.36502C13.4878 3.89462 13.1054 3.51217 12.635 3.27248C12.1002 3 11.4001 3 10 3H8.33137C8.20908 3 8.14793 3 8.09038 2.98618C8.03937 2.97394 7.99059 2.95373 7.94586 2.92632C7.8954 2.8954 7.85216 2.85216 7.76569 2.76569L7.76569 2.76569L7.76569 2.76569L7.17157 2.17157C6.73919 1.73919 6.523 1.523 6.27071 1.3684C6.04703 1.23133 5.80317 1.13032 5.54808 1.06908C5.26036 1 4.95462 1 4.34315 1H4.2C3.0799 1 2.51984 1 2.09202 1.21799C1.71569 1.40973 1.40973 1.71569 1.21799 2.09202C1 2.51984 1 3.0799 1 4.2Z" fill="#606080" stroke="#8080A0" stroke-width="0.5"/>
<path fill-rule="evenodd" clip-rule="evenodd" d="M9.79648 6.16828C9.64478 6.19981 9.50171 6.28029 9.21558 6.44123L6.81558 7.79123L6.81558 7.79124C6.51865 7.95826 6.37019 8.04177 6.26213 8.15991C6.16652 8.26443 6.09421 8.38806 6.04999 8.52263C6 8.67474 6 8.84508 6 9.18576V11.8142C6 12.1549 6 12.3253 6.04999 12.4774C6.09421 12.6119 6.16652 12.7356 6.26213 12.8401C6.37019 12.9582 6.51866 13.0417 6.81558 13.2088L9.21558 14.5588C9.50171 14.7197 9.64478 14.8002 9.79648 14.8317C9.93072 14.8596 10.0693 14.8596 10.2035 14.8317C10.3552 14.8002 10.4983 14.7197 10.7844 14.5588L13.1844 13.2088C13.4813 13.0417 13.6298 12.9582 13.7379 12.8401C13.8335 12.7356 13.9058 12.6119 13.95 12.4774C14 12.3253 14 12.1549 14 11.8142V9.18576C14 8.84508 14 8.67474 13.95 8.52263C13.9058 8.38806 13.8335 8.26443 13.7379 8.15991C13.6298 8.04177 13.4813 7.95826 13.1844 7.79123L10.7844 6.44123C10.4983 6.28028 10.3552 6.19981 10.2035 6.16828C10.0693 6.14037 9.93072 6.14037 9.79648 6.16828ZM8.27951 8.94098C7.97077 8.78661 7.59535 8.91176 7.44098 9.22049C7.28661 9.52923 7.41175 9.90465 7.72049 10.059L9.375 10.8863V13C9.375 13.3452 9.65482 13.625 10 13.625C10.3452 13.625 10.625 13.3452 10.625 13V10.8863L12.2795 10.059C12.5882 9.90465 12.7134 9.52923 12.559 9.22049C12.4046 8.91176 12.0292 8.78661 11.7205 8.94098L10 9.80123L8.27951 8.94098Z" fill="#606080" stroke="#8080A0" stroke-width="0.5"/>
<path fill-rule="evenodd" clip-rule="evenodd" d="M9.79648 6.16828C9.64478 6.19981 9.50171 6.28029 9.21558 6.44123L6.81558 7.79123L6.81558 7.79124C6.51865 7.95826 6.37019 8.04177 6.26213 8.15991C6.16652 8.26443 6.09421 8.38806 6.04999 8.52263C6 8.67474 6 8.84508 6 9.18576V11.8142C6 12.1549 6 12.3253 6.04999 12.4774C6.09421 12.6119 6.16652 12.7356 6.26213 12.8401C6.37019 12.9582 6.51866 13.0417 6.81558 13.2088L9.21558 14.5588C9.50171 14.7197 9.64478 14.8002 9.79648 14.8317C9.93072 14.8596 10.0693 14.8596 10.2035 14.8317C10.3552 14.8002 10.4983 14.7197 10.7844 14.5588L13.1844 13.2088C13.4813 13.0417 13.6298 12.9582 13.7379 12.8401C13.8335 12.7356 13.9058 12.6119 13.95 12.4774C14 12.3253 14 12.1549 14 11.8142V9.18576C14 8.84508 14 8.67474 13.95 8.52263C13.9058 8.38806 13.8335 8.26443 13.7379 8.15991C13.6298 8.04177 13.4813 7.95826 13.1844 7.79123L10.7844 6.44123C10.4983 6.28028 10.3552 6.19981 10.2035 6.16828C10.0693 6.14037 9.93072 6.14037 9.79648 6.16828ZM8.27951 8.94098C7.97077 8.78661 7.59535 8.91176 7.44098 9.22049C7.28661 9.52923 7.41175 9.90465 7.72049 10.059L9.375 10.8863V13C9.375 13.3452 9.65482 13.625 10 13.625C10.3452 13.625 10.625 13.3452 10.625 13V10.8863L12.2795 10.059C12.5882 9.90465 12.7134 9.52923 12.559 9.22049C12.4046 8.91176 12.0292 8.78661 11.7205 8.94098L10 9.80123L8.27951 8.94098Z" fill="white" fill-opacity="0.2" style="mix-blend-mode:plus-lighter"/></svg>
