<?xml version="1.0" encoding="UTF-8"?>
<svg width="16" height="16" viewBox="0 0 16 16" fill="none" xmlns="http://www.w3.org/2000/svg">
<path opacity="0.8" fill-rule="evenodd" clip-rule="evenodd" d="M1 4.2V9C1 10.4001 1 11.1002 1.27248 11.635C1.51217 12.1054 1.89462 12.4878 2.36502 12.7275C2.83198 12.9654 3.42496 12.9956 4.5 12.9994V9.3C4.5 7.61984 4.5 6.77976 4.82698 6.13803C5.1146 5.57354 5.57354 5.1146 6.13803 4.82698C6.77976 4.5 7.61984 4.5 9.3 4.5H10.2322C10.7486 4.5 11.0069 4.5 11.2529 4.54121C11.7021 4.61645 12.1283 4.79297 12.4991 5.0574C12.7023 5.20226 12.8848 5.38484 13.25 5.75C13.6152 6.11516 13.7977 6.29774 13.9426 6.50088C13.9621 6.52825 13.9811 6.55591 13.9997 6.58386C13.997 5.45553 13.9716 4.84399 13.7275 4.36502C13.4878 3.89462 13.1054 3.51217 12.635 3.27248C12.1002 3 11.4001 3 10 3H8.33137C8.20908 3 8.14793 3 8.09038 2.98618C8.03937 2.97394 7.99059 2.95373 7.94586 2.92632C7.8954 2.8954 7.85216 2.85216 7.76569 2.76569L7.76569 2.76569L7.76569 2.76569L7.17157 2.17157C6.73919 1.73919 6.523 1.523 6.27071 1.3684C6.04703 1.23133 5.80317 1.13032 5.54808 1.06908C5.26036 1 4.95462 1 4.34315 1H4.2C3.0799 1 2.51984 1 2.09202 1.21799C1.71569 1.40973 1.40973 1.71569 1.21799 2.09202C1 2.51984 1 3.0799 1 4.2Z" fill="#5B66C7" stroke="#7380F9" stroke-width="0.5"/>
<path d="M14 7.6C14 7.03995 14 6.75992 13.891 6.54601C13.7951 6.35785 13.6422 6.20487 13.454 6.10899C13.2401 6 12.9601 6 12.4 6H9.2C8.0799 6 7.51984 6 7.09202 6.21799C6.71569 6.40973 6.40973 6.71569 6.21799 7.09202C6 7.51984 6 8.0799 6 9.2V11.8C6 12.9201 6 13.4802 6.21799 13.908C6.40973 14.2843 6.71569 14.5903 7.09202 14.782C7.51984 15 8.0799 15 9.2 15H13C13.5523 15 14 14.5523 14 14C14 13.7239 13.7761 13.5 13.5 13.5H8.25C7.83579 13.5 7.5 13.1642 7.5 12.75C7.5 12.3358 7.83579 12 8.25 12H13.2C13.48 12 13.62 12 13.727 11.9455C13.8211 11.8976 13.8976 11.8211 13.9455 11.727C14 11.62 14 11.48 14 11.2V7.6Z" fill="#5B66C7" stroke="#7380F9" stroke-width="0.5"/>
<path d="M14 7.6C14 7.03995 14 6.75992 13.891 6.54601C13.7951 6.35785 13.6422 6.20487 13.454 6.10899C13.2401 6 12.9601 6 12.4 6H9.2C8.0799 6 7.51984 6 7.09202 6.21799C6.71569 6.40973 6.40973 6.71569 6.21799 7.09202C6 7.51984 6 8.0799 6 9.2V11.8C6 12.9201 6 13.4802 6.21799 13.908C6.40973 14.2843 6.71569 14.5903 7.09202 14.782C7.51984 15 8.0799 15 9.2 15H13C13.5523 15 14 14.5523 14 14C14 13.7239 13.7761 13.5 13.5 13.5H8.25C7.83579 13.5 7.5 13.1642 7.5 12.75C7.5 12.3358 7.83579 12 8.25 12H13.2C13.48 12 13.62 12 13.727 11.9455C13.8211 11.8976 13.8976 11.8211 13.9455 11.727C14 11.62 14 11.48 14 11.2V7.6Z" fill="white" fill-opacity="0.2" style="mix-blend-mode:plus-lighter"/></svg>
