<?xml version="1.0" encoding="UTF-8"?>
<svg width="16" height="16" viewBox="0 0 16 16" fill="none" xmlns="http://www.w3.org/2000/svg">
<path opacity="0.8" fill-rule="evenodd" clip-rule="evenodd" d="M1 4.2V9C1 10.4001 1 11.1002 1.27248 11.635C1.51217 12.1054 1.89462 12.4878 2.36502 12.7275C2.8998 13 3.59987 13 5 13H7.16476C7.07288 12.9315 6.96579 12.8813 6.84823 12.8552L5.86035 12.6356C5.74583 12.6102 5.68857 12.5975 5.64549 12.5858C4.39262 12.2482 3.78803 10.8253 4.41461 9.689C4.43615 9.64993 4.46674 9.59988 4.52792 9.49978L6.6679 5.99798C6.79467 5.79054 6.85805 5.68683 6.90986 5.61662C7.70427 4.54012 9.31117 4.53205 10.1164 5.60051C10.1689 5.67019 10.2333 5.77326 10.3621 5.97941L10.3621 5.97942L10.425 6.07996C10.7827 6.65231 11.41 7 12.085 7C12.7806 7 13.4339 7.18143 14 7.49955V7C14 5.59987 14 4.8998 13.7275 4.36502C13.4878 3.89462 13.1054 3.51217 12.635 3.27248C12.1002 3 11.4001 3 10 3H8.33137C8.20908 3 8.14793 3 8.09038 2.98618C8.03937 2.97394 7.99059 2.95373 7.94586 2.92632C7.8954 2.8954 7.85216 2.85216 7.76569 2.76569L7.76569 2.76569L7.76569 2.76569L7.17157 2.17157C6.73919 1.73919 6.523 1.523 6.27071 1.3684C6.04703 1.23133 5.80317 1.13032 5.54808 1.06908C5.26036 1 4.95462 1 4.34315 1H4.2C3.0799 1 2.51984 1 2.09202 1.21799C1.71569 1.40973 1.40973 1.71569 1.21799 2.09202C1 2.51984 1 3.0799 1 4.2Z" fill="#5B66C7" stroke="#7380F9" stroke-width="0.5"/>
<path fill-rule="evenodd" clip-rule="evenodd" d="M10 6.25C10.4142 6.25 10.75 6.58579 10.75 7C10.75 7.41421 10.4142 7.75 10 7.75C9.58579 7.75 9.25 7.41421 9.25 7C9.25 6.58579 9.58579 6.25 10 6.25ZM6.75 10C6.75 9.58579 7.08579 9.25 7.5 9.25C7.91421 9.25 8.25 9.58579 8.25 10C8.25 10.4142 7.91421 10.75 7.5 10.75C7.08579 10.75 6.75 10.4142 6.75 10ZM12.5 9.25C12.0858 9.25 11.75 9.58579 11.75 10C11.75 10.4142 12.0858 10.75 12.5 10.75C12.9142 10.75 13.25 10.4142 13.25 10C13.25 9.58579 12.9142 9.25 12.5 9.25ZM10 12.25C9.58579 12.25 9.25 12.5858 9.25 13C9.25 13.4142 9.58579 13.75 10 13.75C10.4142 13.75 10.75 13.4142 10.75 13C10.75 12.5858 10.4142 12.25 10 12.25Z" fill="#5B66C7" stroke="#7380F9" stroke-width="0.5"/>
<path d="M7.93934 9.56066L9.43934 8.06066L10.5 9.12132L9 10.6213L7.93934 9.56066Z" fill="#5B66C7" stroke="#7380F9" stroke-width="0.5"/>
<path d="M10.0607 11.0607L11.5607 9.56066L12.6213 10.6213L11.1213 12.1213L10.0607 11.0607Z" fill="#5B66C7" stroke="#7380F9" stroke-width="0.5"/>
<path d="M10.0607 11.0607L11.5607 9.56066L12.6213 10.6213L11.1213 12.1213L10.0607 11.0607Z" fill="white" fill-opacity="0.2" style="mix-blend-mode:plus-lighter"/></svg>
