<?xml version="1.0" encoding="UTF-8"?>
<svg width="16" height="16" viewBox="0 0 16 16" fill="none" xmlns="http://www.w3.org/2000/svg">
<path opacity="0.8" fill-rule="evenodd" clip-rule="evenodd" d="M1 4.2V9C1 10.4001 1 11.1002 1.27248 11.635C1.51217 12.1054 1.89462 12.4878 2.36502 12.7275C2.83198 12.9654 3.42496 12.9956 4.5 12.9994V9.3C4.5 7.61984 4.5 6.77976 4.82698 6.13803C5.1146 5.57354 5.57354 5.1146 6.13803 4.82698C6.77976 4.5 7.61984 4.5 9.3 4.5H10.2322C10.7486 4.5 11.0069 4.5 11.2529 4.54121C11.7021 4.61645 12.1283 4.79297 12.4991 5.0574C12.7023 5.20226 12.8848 5.38484 13.25 5.75C13.6152 6.11516 13.7977 6.29774 13.9426 6.50088C13.9621 6.52825 13.9811 6.55591 13.9997 6.58386C13.997 5.45553 13.9716 4.84399 13.7275 4.36502C13.4878 3.89462 13.1054 3.51217 12.635 3.27248C12.1002 3 11.4001 3 10 3H8.33137C8.20908 3 8.14793 3 8.09038 2.98618C8.03937 2.97394 7.99059 2.95373 7.94586 2.92632C7.8954 2.8954 7.85216 2.85216 7.76569 2.76569L7.76569 2.76569L7.76569 2.76569L7.17157 2.17157C6.73919 1.73919 6.523 1.523 6.27071 1.3684C6.04703 1.23133 5.80317 1.13032 5.54808 1.06908C5.26036 1 4.95462 1 4.34315 1H4.2C3.0799 1 2.51984 1 2.09202 1.21799C1.71569 1.40973 1.40973 1.71569 1.21799 2.09202C1 2.51984 1 3.0799 1 4.2Z" fill="#C26B9D" stroke="#F08CC0" stroke-width="0.5"/>
<path d="M6 8.5V7C6 6.44772 6.44772 6 7 6H13C13.5523 6 14 6.44772 14 7V8.5H12.5V8C12.5 7.72386 12.2761 7.5 12 7.5H8C7.72386 7.5 7.5 7.72386 7.5 8V8.5H6Z" fill="#C26B9D" stroke="#F08CC0" stroke-width="0.5"/>
<path d="M6 11.5V13C6 13.5523 6.44772 14 7 14H13C13.5523 14 14 13.5523 14 13V11.5H12.5V12C12.5 12.2761 12.2761 12.5 12 12.5H8C7.72386 12.5 7.5 12.2761 7.5 12V11.5H6Z" fill="#C26B9D" stroke="#F08CC0" stroke-width="0.5"/>
<path d="M6 9.5H14V10.5H6V9.5Z" fill="#C26B9D" stroke="#F08CC0" stroke-width="0.5"/>
<path d="M6 9.5H14V10.5H6V9.5Z" fill="white" fill-opacity="0.2" style="mix-blend-mode:plus-lighter"/></svg>
