<?xml version="1.0" encoding="UTF-8"?>
<svg width="16" height="16" viewBox="0 0 16 16" fill="none" xmlns="http://www.w3.org/2000/svg">
<path opacity="0.8" fill-rule="evenodd" clip-rule="evenodd" d="M1 4.2V9C1 10.4001 1 11.1002 1.27248 11.635C1.51217 12.1054 1.89462 12.4878 2.36502 12.7275C2.8998 13 3.59987 13 5 13H7.16476C7.07288 12.9315 6.96579 12.8813 6.84823 12.8552L5.86035 12.6356C5.74583 12.6102 5.68857 12.5975 5.64549 12.5858C4.39262 12.2482 3.78803 10.8253 4.41461 9.689C4.43615 9.64993 4.46674 9.59988 4.52792 9.49978L6.6679 5.99798C6.79467 5.79054 6.85805 5.68683 6.90986 5.61662C7.70427 4.54012 9.31117 4.53205 10.1164 5.60051C10.1689 5.67019 10.2333 5.77326 10.3621 5.97941L10.3621 5.97942L10.425 6.07996C10.7827 6.65231 11.41 7 12.085 7C12.7806 7 13.4339 7.18143 14 7.49955V7C14 5.59987 14 4.8998 13.7275 4.36502C13.4878 3.89462 13.1054 3.51217 12.635 3.27248C12.1002 3 11.4001 3 10 3H8.33137C8.20908 3 8.14793 3 8.09038 2.98618C8.03937 2.97394 7.99059 2.95373 7.94586 2.92632C7.8954 2.8954 7.85216 2.85216 7.76569 2.76569L7.76569 2.76569L7.76569 2.76569L7.17157 2.17157C6.73919 1.73919 6.523 1.523 6.27071 1.3684C6.04703 1.23133 5.80317 1.13032 5.54808 1.06908C5.26036 1 4.95462 1 4.34315 1H4.2C3.0799 1 2.51984 1 2.09202 1.21799C1.71569 1.40973 1.40973 1.71569 1.21799 2.09202C1 2.51984 1 3.0799 1 4.2Z" fill="#5BAFD4" stroke="#73D4F9" stroke-width="0.5"/>
<path d="M10.5 7C10.5 8.933 8.933 10.5 7 10.5C5.067 10.5 3.5 8.933 3.5 7C3.5 5.067 5.067 3.5 7 3.5C8.933 3.5 10.5 5.067 10.5 7Z" fill="#5BAFD4" stroke="#73D4F9" stroke-width="0.5"/>
<path d="M9.5 7C9.5 8.38071 8.38071 9.5 7 9.5C5.61929 9.5 4.5 8.38071 4.5 7C4.5 5.61929 5.61929 4.5 7 4.5C8.38071 4.5 9.5 5.61929 9.5 7Z" fill="#5BAFD4" stroke="#73D4F9" stroke-width="0.5"/>
<path d="M8.5 7C8.5 7.82843 7.82843 8.5 7 8.5C6.17157 8.5 5.5 7.82843 5.5 7C5.5 6.17157 6.17157 5.5 7 5.5C7.82843 5.5 8.5 6.17157 8.5 7Z" fill="#5BAFD4" stroke="#73D4F9" stroke-width="0.5"/>
<path d="M7.5 7C7.5 7.27614 7.27614 7.5 7 7.5C6.72386 7.5 6.5 7.27614 6.5 7C6.5 6.72386 6.72386 6.5 7 6.5C7.27614 6.5 7.5 6.72386 7.5 7Z" fill="#5BAFD4" stroke="#73D4F9" stroke-width="0.5"/>
<path d="M7.5 7C7.5 7.27614 7.27614 7.5 7 7.5C6.72386 7.5 6.5 7.27614 6.5 7C6.5 6.72386 6.72386 6.5 7 6.5C7.27614 6.5 7.5 6.72386 7.5 7Z" fill="white" fill-opacity="0.2" style="mix-blend-mode:plus-lighter"/></svg>
