<?xml version="1.0" encoding="UTF-8"?>
<svg width="16" height="16" viewBox="0 0 16 16" fill="none" xmlns="http://www.w3.org/2000/svg">
<path opacity="0.8" fill-rule="evenodd" clip-rule="evenodd" d="M1 4.2V9C1 10.4001 1 11.1002 1.27248 11.635C1.51217 12.1054 1.89462 12.4878 2.36502 12.7275C2.8998 13 3.59987 13 5 13H5.38947C5.31532 12.8546 5.25067 12.7046 5.19627 12.5508C4.93197 11.7697 4.93197 10.7303 5.19627 9.94924C5.46057 9.16815 5.46057 8.12877 5.19627 7.34768C4.93197 6.56659 4.93197 5.52722 5.19627 4.74613C5.25067 4.59235 5.31532 4.44235 5.38947 4.297C5.49978 4.07738 5.64067 3.87281 5.80762 3.6875C5.39865 3.54141 4.90506 3.5 4.34315 3.5H4.2C3.52265 3.5 3.09239 3.5 2.75892 3.61223C2.46652 3.71379 2.21379 3.88223 2.01223 4.10892C1.78556 4.36854 1.67699 4.72488 1.56036 5.34768C1.29606 6.12877 1.29606 7.16815 1.56036 7.94924C1.82466 8.73033 1.82466 9.76971 1.56036 10.5508C1.29606 11.3319 1.29606 12.3712 1.56036 13.1523C1.61477 13.3061 1.67941 13.4561 1.75357 13.6015C2.0703 14.2349 2.76517 14.5 4.2 14.5H10C11.4348 14.5 12.1297 14.2349 12.4464 13.6015C12.5206 13.4561 12.5852 13.3061 12.6396 13.1523C12.9039 12.3712 12.9039 11.3319 12.6396 10.5508C12.3753 9.76971 12.3753 8.73033 12.6396 7.94924C12.9039 7.16815 12.9039 6.12877 12.6396 5.34768C12.523 4.72488 12.4144 4.36854 12.1878 4.10892C11.9862 3.88223 11.7335 3.71379 11.4411 3.61223C11.1076 3.5 10.6773 3.5 10 3.5H8.33137C8.20908 3.5 8.14793 3.5 8.09038 3.48618C8.03937 3.47394 7.99059 3.45373 7.94586 3.42632C7.8954 3.3954 7.85216 3.35216 7.76569 3.26569L7.76569 3.26569L7.76569 3.26569L7.17157 2.67157C6.73919 2.23919 6.523 2.023 6.27071 1.8684C6.04703 1.73133 5.80317 1.63032 5.54808 1.56908C5.26036 1.5 4.95462 1.5 4.34315 1.5H4.2C3.0799 1.5 2.51984 1.5 2.09202 1.71799C1.71569 1.90973 1.40973 2.21569 1.21799 2.59202C1 3.01984 1 3.5799 1 4.2Z" fill="#A67CF8" stroke="#C8A6F9" stroke-width="0.5"/>
<path fill-rule="evenodd" clip-rule="evenodd" d="M4.19627 4.74613C3.93197 5.52722 3.93197 6.56659 4.19627 7.34768C4.46057 8.12877 4.46057 9.16815 4.19627 9.94924C3.93197 10.7303 3.93197 11.7697 4.19627 12.5508C4.46057 13.3319 4.46057 14.3712 4.19627 15.1523C4.14187 15.3061 4.07722 15.4561 4.00307 15.6015C3.68634 16.2349 2.99147 16.5 1.55664 16.5M10.1963 4.74613C9.93197 5.52722 9.93197 6.56659 10.1963 7.34768C10.4606 8.12877 10.4606 9.16815 10.1963 9.94924C9.93197 10.7303 9.93197 11.7697 10.1963 12.5508C10.4606 13.3319 10.4606 14.3712 10.1963 15.1523C10.1419 15.3061 10.0772 15.4561 10.0031 15.6015C9.68634 16.2349 8.99147 16.5 7.55664 16.5" stroke="#C8A6F9" stroke-width="0.5"/>
<path fill-rule="evenodd" clip-rule="evenodd" d="M4.19627 4.74613C3.93197 5.52722 3.93197 6.56659 4.19627 7.34768C4.46057 8.12877 4.46057 9.16815 4.19627 9.94924C3.93197 10.7303 3.93197 11.7697 4.19627 12.5508C4.46057 13.3319 4.46057 14.3712 4.19627 15.1523C4.14187 15.3061 4.07722 15.4561 4.00307 15.6015C3.68634 16.2349 2.99147 16.5 1.55664 16.5M10.1963 4.74613C9.93197 5.52722 9.93197 6.56659 10.1963 7.34768C10.4606 8.12877 10.4606 9.16815 10.1963 9.94924C9.93197 10.7303 9.93197 11.7697 10.1963 12.5508C10.4606 13.3319 10.4606 14.3712 10.1963 15.1523C10.1419 15.3061 10.0772 15.4561 10.0031 15.6015C9.68634 16.2349 8.99147 16.5 7.55664 16.5" fill="white" fill-opacity="0.2" style="mix-blend-mode:plus-lighter"/></svg>
