<svg width="16" height="16" viewBox="0 0 16 16" fill="none" xmlns="http://www.w3.org/2000/svg">
<path opacity="0.8" fill-rule="evenodd" clip-rule="evenodd" d="M1 4.2V9C1 10.4001 1 11.1002 1.27248 11.635C1.51217 12.1054 1.89462 12.4878 2.36502 12.7275C2.8998 13 3.59987 13 5 13H11C12.4001 13 13.1002 13 13.635 12.7275C14.1054 12.4878 14.4878 12.1054 14.7275 11.635C15 11.1002 15 10.4001 15 9V4.2C15 3.0799 15 2.51984 14.782 2.09202C14.5903 1.71569 14.2843 1.40973 13.908 1.21799C13.4802 1 12.9201 1 11.8 1H4.2C3.0799 1 2.51984 1 2.09202 1.21799C1.71569 1.40973 1.40973 1.71569 1.21799 2.09202C1 2.51984 1 3.0799 1 4.2Z" fill="#695C7A" stroke="#2A2433" stroke-width="0.5"/>
<path d="M5.5 5L4 8.5L5.5 12M10.5 5L12 8.5L10.5 12M9 5L7 12" stroke="#695C7A" stroke-width="1.2" stroke-linecap="round" stroke-linejoin="round"/>
<path d="M5.5 5L4 8.5L5.5 12M10.5 5L12 8.5L10.5 12M9 5L7 12" stroke="#342D3E" stroke-opacity="0.2" stroke-width="1.2" stroke-linecap="round" stroke-linejoin="round" style="mix-blend-mode:plus-lighter"/></svg>
