<svg width="16" height="16" viewBox="0 0 16 16" fill="none" xmlns="http://www.w3.org/2000/svg">
<path opacity="0.8" fill-rule="evenodd" clip-rule="evenodd" d="M1 4.2V9C1 10.4001 1 11.1002 1.27248 11.635C1.51217 12.1054 1.89462 12.4878 2.36502 12.7275C2.8998 13 3.59987 13 5 13H5.38947C4.82692 12.1372 4.5 11.1068 4.5 10C4.5 6.96243 6.96243 4.5 10 4.5C11.5748 4.5 12.995 5.16186 13.9977 6.22258C13.9885 5.31979 13.9441 4.79017 13.7275 4.36502C13.4878 3.89462 13.1054 3.51217 12.635 3.27248C12.1002 3 11.4001 3 10 3H8.33137C8.20908 3 8.14793 3 8.09038 2.98618C8.03937 2.97394 7.99059 2.95373 7.94586 2.92632C7.8954 2.8954 7.85216 2.85216 7.76569 2.76569L7.76569 2.76569L7.76569 2.76569L7.17157 2.17157C6.73919 1.73919 6.523 1.523 6.27071 1.3684C6.04703 1.23133 5.80317 1.13032 5.54808 1.06908C5.26036 1 4.95462 1 4.34315 1H4.2C3.0799 1 2.51984 1 2.09202 1.21799C1.71569 1.40973 1.40973 1.71569 1.21799 2.09202C1 2.51984 1 3.0799 1 4.2Z" fill="#695C7A" stroke="#2A2433" stroke-width="0.5"/>
<path d="M9.86364 6H7.09091V14H8.18182V10.8864H9.86364C11.5455 10.8864 12.5909 9.875 12.5909 8.44318C12.5909 7.01136 11.5455 6 9.86364 6ZM9.79545 9.90909H8.18182V6.97727H9.79545C10.9091 6.97727 11.5 7.53409 11.5 8.44318C11.5 9.35227 10.9091 9.90909 9.79545 9.90909Z" fill="#695C7A" stroke="#2A2433" stroke-width="0.5"/>
<path d="M9.86364 6H7.09091V14H8.18182V10.8864H9.86364C11.5455 10.8864 12.5909 9.875 12.5909 8.44318C12.5909 7.01136 11.5455 6 9.86364 6ZM9.79545 9.90909H8.18182V6.97727H9.79545C10.9091 6.97727 11.5 7.53409 11.5 8.44318C11.5 9.35227 10.9091 9.90909 9.79545 9.90909Z" fill="#342D3E" fill-opacity="0.2" style="mix-blend-mode:plus-lighter"/></svg>
