<svg width="32" height="32" viewBox="0 0 16 16" fill="none" xmlns="http://www.w3.org/2000/svg">
<path fill-rule="evenodd" clip-rule="evenodd" d="M3.27248 3.36502C3 3.8998 3 4.59987 3 6V10C3 11.4001 3 12.1002 3.27248 12.635C3.51217 13.1054 3.89462 13.4878 4.36502 13.7275C4.8998 14 5.59987 14 7 14H9C10.4001 14 11.1002 14 11.635 13.7275C12.1054 13.4878 12.4878 13.1054 12.7275 12.635C13 12.1002 13 11.4001 13 10V6C13 4.59987 13 3.8998 12.7275 3.36502C12.4878 2.89462 12.1054 2.51217 11.635 2.27248C11.1002 2 10.4001 2 9 2H7C5.59987 2 4.8998 2 4.36502 2.27248C3.89462 2.51217 3.51217 2.89462 3.27248 3.36502ZM6.48116 5.34572C6.31411 5.21666 6.06843 5.25185 5.93936 5.4189C5.81029 5.58595 5.84549 5.83163 6.01254 5.9607L8.01254 7.4607C8.14852 7.5637 8.33957 7.54878 8.45857 7.42722L10.4586 5.42722C10.6047 5.28115 10.605 5.03468 10.4589 4.88855C10.3128 4.74242 10.0664 4.74211 9.92026 4.88823L8.20076 6.60773L6.48116 5.34572ZM5.1 9.25C5.1 9.11193 5.21193 9 5.35 9H10.65C10.7881 9 10.9 9.11193 10.9 9.25C10.9 9.38807 10.7881 9.5 10.65 9.5H5.35C5.21193 9.5 5.1 9.38807 5.1 9.25ZM5.35 10.5C5.21193 10.5 5.1 10.6119 5.1 10.75C5.1 10.8881 5.21193 11 5.35 11H8.15C8.28807 11 8.4 10.8881 8.4 10.75C8.4 10.6119 8.28807 10.5 8.15 10.5H5.35Z" fill="#502c2c" stroke="#281616" stroke-width="0.5"/>
</svg>