<svg width="32" height="32" viewBox="0 0 16 16" fill="none" xmlns="http://www.w3.org/2000/svg">
<path fill-rule="evenodd" clip-rule="evenodd" d="M2.27248 3.36502C2 3.8998 2 4.59987 2 6V10C2 11.4001 2 12.1002 2.27248 12.635C2.51217 13.1054 2.89462 13.4878 3.36502 13.7275C3.8998 14 4.59987 14 6 14H10C11.4001 14 12.1002 14 12.635 13.7275C13.1054 13.4878 13.4878 13.1054 13.7275 12.635C14 12.1002 14 11.4001 14 10V6C14 4.59987 14 3.8998 13.7275 3.36502C13.4878 2.89462 13.1054 2.51217 12.635 2.27248C12.1002 2 11.4001 2 10 2H6C4.59987 2 3.8998 2 3.36502 2.27248C2.89462 2.51217 2.51217 2.89462 2.27248 3.36502ZM4.42202 5.42202C4.16499 5.67906 4.16499 6.09664 4.42202 6.35368L6.06834 8L4.42202 9.64632C4.16499 9.90336 4.16499 10.3209 4.42202 10.578C4.67906 10.835 5.09664 10.835 5.35368 10.578L7.35368 8.57798C7.61071 8.32094 7.61071 7.90336 7.35368 7.64632L5.35368 5.64632C5.09664 5.38929 4.67906 5.38929 4.42202 5.42202ZM8.5 10.25C8.5 9.83579 8.83579 9.5 9.25 9.5H11.25C11.6642 9.5 12 9.83579 12 10.25C12 10.6642 11.6642 11 11.25 11H9.25C8.83579 11 8.5 10.6642 8.5 10.25Z" fill="#2b404a" stroke="#152025" stroke-width="0.5"/>
</svg>
